<?xml version="1.0" encoding="utf-8"?>
<!-- Generator: Adobe Illustrator 22.1.0, SVG Export Plug-In . SVG Version: 6.00 Build 0)  -->
<svg version="1.1" id="Режим_изоляции"
	 xmlns="http://www.w3.org/2000/svg" xmlns:xlink="http://www.w3.org/1999/xlink" x="0px" y="0px" viewBox="0 0 508.8 369.3"
	 style="enable-background:new 0 0 508.8 369.3;" xml:space="preserve">
<style type="text/css">
	.st0{fill:#696B7B;}
	.st1{opacity:0.2;fill:#C5C5C5;stroke:#585757;stroke-width:0.3553;stroke-miterlimit:10;}
	.st2{opacity:0.15;fill:#C5C5C5;stroke:#585757;stroke-width:0.3553;stroke-miterlimit:10;}
	.st3{opacity:0.35;fill:#9B9B9B;}
	.st4{fill:url(#SVGID_1_);}
	.st5{fill:url(#SVGID_2_);}
	.st6{fill:url(#SVGID_3_);}
	.st7{fill:url(#SVGID_4_);}
	.st8{fill:url(#SVGID_5_);}
	.st9{fill:url(#SVGID_6_);}
	.st10{fill:url(#SVGID_7_);}
	.st11{fill:url(#SVGID_8_);}
	.st12{fill:url(#SVGID_9_);}
	.st13{fill:url(#SVGID_10_);}
	.st14{fill:url(#SVGID_11_);}
	.st15{fill:url(#SVGID_12_);}
	.st16{fill:url(#SVGID_13_);}
	.st17{fill:url(#SVGID_14_);}
	.st18{fill:url(#SVGID_15_);}
	.st19{fill:url(#SVGID_16_);}
</style>
<g>
	<g>
		<path class="st0" d="M129.7,363.3c-0.7,0.4-2.2,0.7-4.1,0.7c-4.3,0-7.6-2.7-7.6-7.8c0-4.8,3.3-8.1,8-8.1c1.9,0,3.1,0.4,3.6,0.7
			l-0.5,1.6c-0.8-0.4-1.8-0.6-3.1-0.6c-3.6,0-6,2.3-6,6.3c0,3.8,2.2,6.2,5.9,6.2c1.2,0,2.4-0.2,3.2-0.6L129.7,363.3z"/>
		<path class="st0" d="M139.3,350.1h-4.7v-1.7H146v1.7h-4.7v13.7h-2V350.1z"/>
		<path class="st0" d="M151.8,358.9l-1.6,4.8h-2.1l5.2-15.4h2.4l5.2,15.4h-2.1l-1.6-4.8H151.8z M156.8,357.4l-1.5-4.4
			c-0.3-1-0.6-1.9-0.8-2.8h0c-0.2,0.9-0.5,1.8-0.8,2.8l-1.5,4.4H156.8z"/>
		<path class="st0" d="M166.7,348.6c1-0.2,2.2-0.3,3.8-0.3c2,0,3.4,0.5,4.3,1.3c0.8,0.7,1.3,1.8,1.3,3.2c0,1.4-0.4,2.5-1.2,3.3
			c-1,1.1-2.8,1.7-4.7,1.7c-0.6,0-1.1,0-1.6-0.1v6.2h-2V348.6z M168.6,356c0.4,0.1,1,0.2,1.6,0.2c2.4,0,3.9-1.2,3.9-3.3
			c0-2-1.4-3-3.6-3c-0.9,0-1.5,0.1-1.9,0.2V356z"/>
		<path class="st0" d="M195.2,355.9c0,5.3-3.2,8.1-7.1,8.1c-4.1,0-6.9-3.1-6.9-7.8c0-4.9,3-8.1,7.1-8.1
			C192.4,348.1,195.2,351.4,195.2,355.9z M183.2,356.2c0,3.3,1.8,6.2,4.9,6.2c3.1,0,4.9-2.9,4.9-6.4c0-3.1-1.6-6.2-4.9-6.2
			C184.9,349.8,183.2,352.8,183.2,356.2z"/>
		<path class="st0" d="M203.1,348.4v6.4h7.4v-6.4h2v15.4h-2v-7.2h-7.4v7.2h-2v-15.4H203.1z"/>
		<path class="st0" d="M221.9,358.9l-1.6,4.8h-2.1l5.2-15.4h2.4l5.2,15.4H229l-1.6-4.8H221.9z M227,357.4l-1.5-4.4
			c-0.3-1-0.6-1.9-0.8-2.8h0c-0.2,0.9-0.5,1.8-0.8,2.8l-1.5,4.4H227z"/>
		<path class="st0" d="M236.8,348.6c0.9-0.2,2.2-0.3,3.6-0.3c2,0,3.3,0.3,4.2,1.1c0.8,0.6,1.3,1.5,1.3,2.7c0,1.5-1,2.8-2.6,3.4v0
			c1.5,0.4,3.2,1.6,3.2,3.9c0,1.3-0.5,2.3-1.3,3.1c-1.1,1-2.8,1.4-5.3,1.4c-1.4,0-2.4-0.1-3.1-0.2V348.6z M238.8,354.9h1.8
			c2.1,0,3.3-1.1,3.3-2.6c0-1.8-1.4-2.5-3.4-2.5c-0.9,0-1.4,0.1-1.8,0.1V354.9z M238.8,362.3c0.4,0.1,1,0.1,1.7,0.1
			c2.1,0,3.9-0.8,3.9-3c0-2.1-1.8-3-4-3h-1.6V362.3z"/>
		<path class="st0" d="M265.5,355.9c0,5.3-3.2,8.1-7.1,8.1c-4.1,0-6.9-3.1-6.9-7.8c0-4.9,3-8.1,7.1-8.1
			C262.8,348.1,265.5,351.4,265.5,355.9z M253.6,356.2c0,3.3,1.8,6.2,4.9,6.2c3.1,0,4.9-2.9,4.9-6.4c0-3.1-1.6-6.2-4.9-6.2
			C255.2,349.8,253.6,352.8,253.6,356.2z"/>
		<path class="st0" d="M281.5,348.4v13.7l1.3,0l-0.1,5.3h-1.6l-0.1-3.7h-9.7l-0.1,3.7h-1.5l-0.1-5.3l1.2,0c0.6-1,1.1-2.2,1.5-3.4
			c0.5-1.8,0.7-3.8,0.7-6.5v-3.9H281.5z M274.8,352.9c0,2.5-0.2,4.5-0.8,6.3c-0.3,1.1-0.8,2.1-1.3,2.9h6.8V350h-4.8V352.9z"/>
		<path class="st0" d="M290.8,348.4v6.4h7.4v-6.4h2v15.4h-2v-7.2h-7.4v7.2h-2v-15.4H290.8z"/>
		<path class="st0" d="M309,348.4v6.5c0,2.4,0,4.4-0.2,6.5l0,0c0.8-1.6,1.7-3.3,2.8-5.1l5-7.9h2v15.4h-1.9v-6.5c0-2.5,0-4.3,0.2-6.2
			l-0.1,0c-0.8,1.7-1.8,3.5-2.8,5.2l-4.8,7.6h-2.1v-15.4H309z"/>
		<path class="st0" d="M327.5,348.4v13.7h7v-13.7h2v13.7l1.3,0l-0.1,5.3h-1.6l-0.1-3.7h-10.5v-15.4H327.5z"/>
		<path class="st0" d="M345.8,348.4v5.7c0.5-0.1,1.4-0.1,1.9-0.1c3.1,0,5.9,1.4,5.9,4.8c0,1.4-0.5,2.5-1.2,3.3
			c-1.3,1.3-3.4,1.8-5.5,1.8c-1.4,0-2.4-0.1-3.1-0.2v-15.3H345.8z M345.8,362.2c0.5,0.1,1,0.1,1.6,0.1c2.2,0,4.1-1.1,4.1-3.4
			c0-2.4-1.9-3.3-4.1-3.3c-0.5,0-1.1,0-1.6,0.1V362.2z"/>
		<path class="st0" d="M361.5,348.4v6.8h0.6l5.3-6.8h2.4l-5.8,7c2.5,0.3,3.5,1.9,4.3,4c0.6,1.6,1,3,1.7,4.4h-2.1
			c-0.5-1-1-2.4-1.4-3.6c-0.7-2-1.7-3.4-4.3-3.4h-0.6v7h-2v-15.4H361.5z"/>
		<path class="st0" d="M377.9,358.9l-1.6,4.8h-2.1l5.2-15.4h2.4l5.2,15.4H385l-1.6-4.8H377.9z M383,357.4l-1.5-4.4
			c-0.3-1-0.6-1.9-0.8-2.8h0c-0.2,0.9-0.5,1.8-0.8,2.8l-1.5,4.4H383z"/>
	</g>
	
		<rect x="383.8" y="296.6" transform="matrix(4.833363e-03 -1 1 4.833363e-03 107.3673 705.9688)" class="st0" width="49.1" height="5"/>
	<path class="st0" d="M378.6,281.2c2.4-1.8,6-2.7,10.7-2.7l1.8,0l0-4.6l-1.8,0c-5.8,0-10.4,1.3-13.8,3.8c-3.5,2.6-5.3,6.4-5.3,11.1
		l-0.1,20.2c0,4.7,1.7,8.5,5.2,11.1c3.3,2.5,7.9,3.8,13.8,3.9l1.8,0l0-4.5l-1.8,0c-2.3,0-4.4-0.3-6.2-0.8c-1.7-0.5-3.2-1.2-4.4-2.1
		c-1.1-0.9-2-1.9-2.5-3.2c-0.6-1.3-0.9-2.7-0.9-4.4l0.1-20.2C375.2,285.4,376.3,283,378.6,281.2z"/>
	<polygon class="st0" points="503.3,274.2 487.5,295.9 471.8,274 468.4,276.5 485.5,300.3 485.4,324 489.3,324 489.4,300.3 
		506.8,276.6 	"/>
	<rect x="1.3" y="274.2" class="st0" width="5" height="49.4"/>
	<polygon class="st0" points="113,324 144,324 144,319.4 118,319.4 118,298.6 137.3,298.6 137.3,294 118,294 118,278.3 144,278.3 
		144,273.7 113,273.7 	"/>
	<path class="st0" d="M272,274.2L250.8,323l4.9,0.9l5.5-12.5h25.5l5.5,12.5l4.9-0.9l-21.3-48.8H272z M263.2,306.7l10.7-24.6
		l10.8,24.6H263.2z"/>
	<polygon class="st0" points="314.2,274.2 309.2,274.2 309.2,324 340.2,324 340.2,319.4 314.2,319.4 	"/>
	<polygon class="st0" points="19.8,274.2 19.8,323.6 24.8,323.6 24.8,283.7 45.9,313.3 45.9,304.9 24,274.2 	"/>
	<polygon class="st0" points="53,323.6 58.1,323.6 58.1,274.2 53.1,274.2 	"/>
	<polygon class="st0" points="226.2,299.8 235.6,299.8 235.6,316.8 240.5,316.8 240.5,295.2 226.2,295.2 	"/>
	<path class="st0" d="M212.3,316.3c-2.6-2-3.8-4.3-3.8-7.3v-20.3c0-3.1,1.4-5.5,4.4-7.5c2.8-1.9,6.1-2.9,9.7-2.9h5v-4.7h-5
		c-4.7,0-9,1.3-12.7,3.7c-4.3,2.9-6.4,6.7-6.4,11.3V309c0,4.4,1.9,8,5.6,10.9c3.6,2.7,8.1,4.1,13.5,4.1h5v-4.6h-5
		C218.4,319.4,215,318.4,212.3,316.3z"/>
	<path class="st0" d="M192.1,288.7c0-5.6-2.5-9.8-7.5-12.4c-3.4-1.8-7.6-2.7-12.4-2.7h-2.6v4.7h2.6c4,0,7.4,0.7,10,2.1
		c3.3,1.7,5,4.5,5,8.3c0,3.9-1.4,6.2-4.8,8c-1,0.5-3.9,1.6-5.1,1.9l-1.3,0.3l-0.2,4.7l11.8,20.3l5.4-1.3l-11.7-20.5
		C188.1,299.6,192.1,294.7,192.1,288.7z"/>
	<polygon class="st0" points="157.5,323.6 162.5,323.6 162.7,273.7 157.5,273.7 	"/>
	<g>
		<polygon class="st0" points="438,282.7 437.8,325.5 442.9,325.6 443.5,282.7 		"/>
		<polygon class="st0" points="443.6,274.1 443.6,274.1 423,274 422.9,278.9 460.4,278.9 460.4,274.2 		"/>
	</g>
	<g>
		<polygon class="st0" points="87.6,273.4 87.6,273.4 67.3,273.4 67.3,278.2 104.1,278.1 104.1,273.4 		"/>
		<polygon class="st0" points="82.1,282 82.1,323.9 87.2,323.9 87.6,282 		"/>
	</g>
	<g>
		<path class="st1" d="M146.5,180c1-9.5,6-30.2,13.3-49.7C169,105.8,186.2,72,217,44.4c5.3-4.7,10.5-8.9,15.6-12.7
			c-13.1,5.9-27,13.9-40.9,24.7C134,101.3,133.9,161,133.9,161s-0.9,24.7,14.3,39.9C145.9,193.8,145.8,186.3,146.5,180z"/>
		<path class="st1" d="M368.7,50.5c-2.1-4.7-4.9-8.9-8.3-12.7c0.7,2.5,1.3,5.1,1.7,7.8c5.8,37.2-11.4,86.4-46.7,139.7
			c-3.4,5.1-7.2,9.6-11.4,13.8c14.9-6.9,27.4-15.9,35.4-27.4C371.9,124.6,379.2,73.2,368.7,50.5z"/>
		<path class="st2" d="M287.4,16.1c15.7-2,33.4-0.3,48.4,5.5c10.2,4,18.4,9.4,24.6,16.2c-3.4-11.7-9.9-20.8-19.6-27.3
			c-11-7.4-25.1-10.2-38.3-8.6c-15.8,1.9-41.1,8.6-69.9,29.8C254.1,22,273.6,17.8,287.4,16.1z"/>
		<path class="st2" d="M160.6,209.1c-5-2-9.1-4.9-12.4-8.2c2.3,7.3,6.7,14.3,14.7,19.7c25.2,17,100.8,17.9,141.1-21.6
			C257.9,220.2,188.8,220.6,160.6,209.1z"/>
		<path class="st3" d="M287.4,16.1c15.7-2,33.4-0.3,48.4,5.5c10.2,4,18.4,9.4,24.6,16.2c-3.4-11.7-9.9-20.8-19.6-27.3
			c-11-7.4-25.1-10.2-38.3-8.6c-15.8,1.9-41.1,8.6-69.9,29.8C254.1,22,273.6,17.8,287.4,16.1z"/>
		<path class="st3" d="M160.1,208.8c-4.8-1.9-8.6-4.5-11.8-7.6c2.4,6.9,6.4,14.1,14,19.3c25.2,16.9,98.3,18.8,141.4-21
			C256.9,220.2,188.4,220.2,160.1,208.8z"/>
	</g>
	<g>
		
			<linearGradient id="SVGID_1_" gradientUnits="userSpaceOnUse" x1="2681.0103" y1="137.0467" x2="2718.3389" y2="137.0467" gradientTransform="matrix(-0.998 -6.271042e-02 -6.271042e-02 0.998 2951.365 92.6318)">
			<stop  offset="0" style="stop-color:#B1B1B0"/>
			<stop  offset="6.385764e-02" style="stop-color:#C1C1C1"/>
			<stop  offset="0.195" style="stop-color:#EAEAEA"/>
			<stop  offset="0.2005" style="stop-color:#ECECEC"/>
			<stop  offset="0.2914" style="stop-color:#D0D0CF"/>
			<stop  offset="0.4933" style="stop-color:#828282"/>
			<stop  offset="0.5371" style="stop-color:#6F6F6E"/>
			<stop  offset="1" style="stop-color:#9B9B9B"/>
		</linearGradient>
		<path class="st4" d="M264.8,54.5c0,0-6.5-1.9-15.5,1.7c-9,3.6-11.6,6.3-14.2,8.4c-2.6,2.2-6,5.6-6,5.6s1.3-4.6,7.9-11
			c6.5-6.4,12.7-8.4,15.8-9.2c3.3-0.8,8.9-1.1,12.5,0.6c1.8,0.8,2.5,2,2.2,2.8C267.1,54.9,264.8,54.5,264.8,54.5z"/>
		
			<linearGradient id="SVGID_2_" gradientUnits="userSpaceOnUse" x1="2629.7112" y1="246.3801" x2="2754.4893" y2="246.3801" gradientTransform="matrix(-0.998 -6.271042e-02 -6.271042e-02 0.998 2951.365 92.6318)">
			<stop  offset="0" style="stop-color:#B1B1B0"/>
			<stop  offset="6.385764e-02" style="stop-color:#C1C1C1"/>
			<stop  offset="0.195" style="stop-color:#EAEAEA"/>
			<stop  offset="0.2005" style="stop-color:#ECECEC"/>
			<stop  offset="0.2914" style="stop-color:#D0D0CF"/>
			<stop  offset="0.4933" style="stop-color:#828282"/>
			<stop  offset="0.5371" style="stop-color:#6F6F6E"/>
			<stop  offset="1" style="stop-color:#9B9B9B"/>
		</linearGradient>
		<path class="st5" d="M222.5,163.7c16.6-3.7,39.4-6.8,57.1-6.5c19.6,0.3,24.6,1.4,29,4c1,0.6,2.1,1.8,2.6,3.1
			c1.1,2.6,0.8,5.8-1.4,7.7c-6.3,5.3-20.5,3.7-20.5,3.7c0.4,0,16.2-0.8,10.8-9c-3.6-5.5-30.2-4.5-48.6-3.2
			c-34.4,2.5-62.7,12.5-65.6,17.1C185.9,176,195.2,169.8,222.5,163.7z"/>
		
			<linearGradient id="SVGID_3_" gradientUnits="userSpaceOnUse" x1="2660.3533" y1="166.5021" x2="2735.8181" y2="166.5021" gradientTransform="matrix(-0.998 -6.271042e-02 -6.271042e-02 0.998 2951.365 92.6318)">
			<stop  offset="0" style="stop-color:#B1B1B0"/>
			<stop  offset="6.385764e-02" style="stop-color:#C1C1C1"/>
			<stop  offset="0.195" style="stop-color:#EAEAEA"/>
			<stop  offset="0.2005" style="stop-color:#ECECEC"/>
			<stop  offset="0.2914" style="stop-color:#D0D0CF"/>
			<stop  offset="0.4933" style="stop-color:#828282"/>
			<stop  offset="0.5371" style="stop-color:#6F6F6E"/>
			<stop  offset="1" style="stop-color:#9B9B9B"/>
		</linearGradient>
		<path class="st6" d="M209.2,108.2c0,0-0.9-5.7,7.9-13.6c9.6-8.6,23.4-16.5,36.7-20.7c13.3-4.2,24.4-3.9,27.8-2.7
			c3.5,1.1,4.8,2.1,5.1,5.3c0.2,2.8-3.8,5.7-7,6.6c-1.9,0.5-5.4,1-7.1,1.1c3.6-1.5,8.5-2.7,7.2-6.4c-1.3-3.5-9.3-2.9-17.9-1.5
			c-1.8,0.3-3.2,0.5-4.8,1c-7,1.6-14.6,5.2-14.6,5.2s-10.8,4.7-20.4,11.7c-6.5,4.8-9.8,8.1-12.2,12.4
			C209.5,107.4,209.2,108.2,209.2,108.2z"/>
		
			<linearGradient id="SVGID_4_" gradientUnits="userSpaceOnUse" x1="2669.9407" y1="151.1837" x2="2728.7417" y2="151.1837" gradientTransform="matrix(-0.998 -6.271042e-02 -6.271042e-02 0.998 2951.365 92.6318)">
			<stop  offset="0" style="stop-color:#B1B1B0"/>
			<stop  offset="6.385764e-02" style="stop-color:#C1C1C1"/>
			<stop  offset="0.195" style="stop-color:#EAEAEA"/>
			<stop  offset="0.2005" style="stop-color:#ECECEC"/>
			<stop  offset="0.2914" style="stop-color:#D0D0CF"/>
			<stop  offset="0.4933" style="stop-color:#828282"/>
			<stop  offset="0.5371" style="stop-color:#6F6F6E"/>
			<stop  offset="1" style="stop-color:#9B9B9B"/>
		</linearGradient>
		<path class="st7" d="M244.4,64.3c14.2-7.7,30.2-7.9,33.3-2.7c1,1.7-0.3,4.3-1.7,5.5c-1.4,1.2-3.7,2.1-6.9,2.4c0,0,0,0,0,0
			c3.2-1.5,4.4-2.9,3.9-4.9c-0.8-2.9-6.8-3.5-13.8-1.8c-6.4,1.5-11.2,3.5-15.2,5.5c-13.6,7-23.8,15.4-26.4,21.4
			C216.6,83.3,228.6,72.9,244.4,64.3z"/>
		
			<linearGradient id="SVGID_5_" gradientUnits="userSpaceOnUse" x1="2642.7463" y1="196.2917" x2="2745.1062" y2="196.2917" gradientTransform="matrix(-0.998 -6.271042e-02 -6.271042e-02 0.998 2951.365 92.6318)">
			<stop  offset="0" style="stop-color:#B1B1B0"/>
			<stop  offset="6.385764e-02" style="stop-color:#C1C1C1"/>
			<stop  offset="0.195" style="stop-color:#EAEAEA"/>
			<stop  offset="0.2005" style="stop-color:#ECECEC"/>
			<stop  offset="0.2914" style="stop-color:#D0D0CF"/>
			<stop  offset="0.4933" style="stop-color:#828282"/>
			<stop  offset="0.5371" style="stop-color:#6F6F6E"/>
			<stop  offset="1" style="stop-color:#9B9B9B"/>
		</linearGradient>
		<path class="st8" d="M266.9,101.4c19.3-3.9,30.8,0.3,30.8,0.3s6,2,4.5,6.5c-0.6,2-2.2,3.4-3.8,4.4c-1.9,1.2-4,1.9-6.3,2.2
			c-2,0.3-4.9,0.6-6.2,0.3c0,0,0-0.1,0.1-0.1c4.3-1.2,8.4-2.9,7.8-5.7c-0.9-4-8-4.8-21.3-3.8c-8.6,0.7-23.3,4.4-34.9,8.6
			c-5.9,2.1-10.6,3.8-16.4,6.7c-11,5.6-19.8,11.3-23.1,17.7C196.6,134.1,207.7,113.3,266.9,101.4z"/>
		
			<linearGradient id="SVGID_6_" gradientUnits="userSpaceOnUse" x1="2636.3262" y1="213.081" x2="2748.7068" y2="213.081" gradientTransform="matrix(-0.998 -6.271042e-02 -6.271042e-02 0.998 2951.365 92.6318)">
			<stop  offset="0" style="stop-color:#B1B1B0"/>
			<stop  offset="6.385764e-02" style="stop-color:#C1C1C1"/>
			<stop  offset="0.195" style="stop-color:#EAEAEA"/>
			<stop  offset="0.2005" style="stop-color:#ECECEC"/>
			<stop  offset="0.2914" style="stop-color:#D0D0CF"/>
			<stop  offset="0.4933" style="stop-color:#828282"/>
			<stop  offset="0.5371" style="stop-color:#6F6F6E"/>
			<stop  offset="1" style="stop-color:#9B9B9B"/>
		</linearGradient>
		<path class="st9" d="M270.8,118.9c12.9-2.2,25.6-0.9,30.9,0.8c5.3,1.7,6.9,5.8,5.6,8.7c-0.8,1.8-2.5,3.1-5.4,4.3
			c-4.6,1.9-14.3,2.1-14.3,2.1s0.1-0.1,0.2-0.2c6-1,10.3-3.4,10.1-6.1c-0.2-3.3-4.5-4.9-12.6-4.9c-12.5,0.1-36.7,4.2-59.5,11.9
			c-14.6,5-30.2,13-32.3,18.4C192,144.6,221,127.2,270.8,118.9z"/>
		
			<linearGradient id="SVGID_7_" gradientUnits="userSpaceOnUse" x1="2631.8855" y1="229.9815" x2="2752.0386" y2="229.9815" gradientTransform="matrix(-0.998 -6.271042e-02 -6.271042e-02 0.998 2951.365 92.6318)">
			<stop  offset="0" style="stop-color:#B1B1B0"/>
			<stop  offset="6.385764e-02" style="stop-color:#C1C1C1"/>
			<stop  offset="0.195" style="stop-color:#EAEAEA"/>
			<stop  offset="0.2005" style="stop-color:#ECECEC"/>
			<stop  offset="0.2914" style="stop-color:#D0D0CF"/>
			<stop  offset="0.4933" style="stop-color:#828282"/>
			<stop  offset="0.5371" style="stop-color:#6F6F6E"/>
			<stop  offset="1" style="stop-color:#9B9B9B"/>
		</linearGradient>
		<path class="st10" d="M221.4,147.9c13.4-4.2,24.6-7.9,51.7-10.1c13.9-1.1,25.4,0,31,2s7.6,5.4,6.6,9.6c-0.5,2.1-2.2,4-5.2,5.2
			c-4.9,1.9-9.4,1.8-13.1,1.6c6.4-0.7,10-4,9.6-7.6c-0.4-3.3-7.5-5.5-16.2-5.9c-13.2-0.5-21.7,0.5-28.9,1.5
			c-36.4,5.3-65.2,18.6-67.3,23.6C187.2,159.4,215.3,150.3,221.4,147.9z"/>
		
			<linearGradient id="SVGID_8_" gradientUnits="userSpaceOnUse" x1="2650.7063" y1="181.4726" x2="2740.7263" y2="181.4726" gradientTransform="matrix(-0.998 -6.271042e-02 -6.271042e-02 0.998 2951.365 92.6318)">
			<stop  offset="0" style="stop-color:#B1B1B0"/>
			<stop  offset="6.385764e-02" style="stop-color:#C1C1C1"/>
			<stop  offset="0.195" style="stop-color:#EAEAEA"/>
			<stop  offset="0.2005" style="stop-color:#ECECEC"/>
			<stop  offset="0.2914" style="stop-color:#D0D0CF"/>
			<stop  offset="0.4933" style="stop-color:#828282"/>
			<stop  offset="0.5371" style="stop-color:#6F6F6E"/>
			<stop  offset="1" style="stop-color:#9B9B9B"/>
		</linearGradient>
		<path class="st11" d="M206.7,115.2c3.2-4.3,13.4-12.3,27.9-19.1c17.3-8.1,29.2-9.7,36.6-10.6c9.7-1.2,20.5-0.4,23.2,2.9
			s-0.2,6.3-2.7,8c-2,1.3-7.9,2.7-10.9,2c4.2-1.1,6.5-3.1,6.4-5.1c-0.2-2.7-3-5.3-15.9-4c-15.1,1.3-31.2,8.4-31.2,8.4
			s-13,5.6-21.2,11.1s-12.9,10.1-14,11.8c-1.2,1.7-1.5,2.9-1.5,2.9S203.1,120.1,206.7,115.2z"/>
	</g>
</g>
<g>
	<g>
		<path class="st0" d="M129.7,362.8c-0.7,0.4-2.2,0.7-4.1,0.7c-4.3,0-7.6-2.7-7.6-7.8c0-4.8,3.3-8.1,8-8.1c1.9,0,3.1,0.4,3.6,0.7
			l-0.5,1.6c-0.8-0.4-1.8-0.6-3.1-0.6c-3.6,0-6,2.3-6,6.3c0,3.8,2.2,6.2,5.9,6.2c1.2,0,2.4-0.2,3.2-0.6L129.7,362.8z"/>
		<path class="st0" d="M139.3,349.7h-4.7V348H146v1.7h-4.7v13.7h-2V349.7z"/>
		<path class="st0" d="M151.8,358.5l-1.6,4.8h-2.1l5.2-15.4h2.4l5.2,15.4h-2.1l-1.6-4.8H151.8z M156.8,357l-1.5-4.4
			c-0.3-1-0.6-1.9-0.8-2.8h0c-0.2,0.9-0.5,1.8-0.8,2.8l-1.5,4.4H156.8z"/>
		<path class="st0" d="M166.7,348.2c1-0.2,2.2-0.3,3.8-0.3c2,0,3.4,0.5,4.3,1.3c0.8,0.7,1.3,1.8,1.3,3.2c0,1.4-0.4,2.5-1.2,3.3
			c-1,1.1-2.8,1.7-4.7,1.7c-0.6,0-1.1,0-1.6-0.1v6.2h-2V348.2z M168.6,355.6c0.4,0.1,1,0.2,1.6,0.2c2.4,0,3.9-1.2,3.9-3.3
			c0-2-1.4-3-3.6-3c-0.9,0-1.5,0.1-1.9,0.2V355.6z"/>
		<path class="st0" d="M195.2,355.5c0,5.3-3.2,8.1-7.1,8.1c-4.1,0-6.9-3.1-6.9-7.8c0-4.9,3-8.1,7.1-8.1
			C192.4,347.7,195.2,350.9,195.2,355.5z M183.2,355.8c0,3.3,1.8,6.2,4.9,6.2c3.1,0,4.9-2.9,4.9-6.4c0-3.1-1.6-6.2-4.9-6.2
			C184.9,349.4,183.2,352.4,183.2,355.8z"/>
		<path class="st0" d="M203.1,348v6.4h7.4V348h2v15.4h-2v-7.2h-7.4v7.2h-2V348H203.1z"/>
		<path class="st0" d="M221.9,358.5l-1.6,4.8h-2.1l5.2-15.4h2.4l5.2,15.4H229l-1.6-4.8H221.9z M227,357l-1.5-4.4
			c-0.3-1-0.6-1.9-0.8-2.8h0c-0.2,0.9-0.5,1.8-0.8,2.8l-1.5,4.4H227z"/>
		<path class="st0" d="M236.8,348.2c0.9-0.2,2.2-0.3,3.6-0.3c2,0,3.3,0.3,4.2,1.1c0.8,0.6,1.3,1.5,1.3,2.7c0,1.5-1,2.8-2.6,3.4v0
			c1.5,0.4,3.2,1.6,3.2,3.9c0,1.3-0.5,2.3-1.3,3.1c-1.1,1-2.8,1.4-5.3,1.4c-1.4,0-2.4-0.1-3.1-0.2V348.2z M238.8,354.5h1.8
			c2.1,0,3.3-1.1,3.3-2.6c0-1.8-1.4-2.5-3.4-2.5c-0.9,0-1.4,0.1-1.8,0.1V354.5z M238.8,361.8c0.4,0.1,1,0.1,1.7,0.1
			c2.1,0,3.9-0.8,3.9-3c0-2.1-1.8-3-4-3h-1.6V361.8z"/>
		<path class="st0" d="M265.5,355.5c0,5.3-3.2,8.1-7.1,8.1c-4.1,0-6.9-3.1-6.9-7.8c0-4.9,3-8.1,7.1-8.1
			C262.8,347.7,265.5,350.9,265.5,355.5z M253.6,355.8c0,3.3,1.8,6.2,4.9,6.2c3.1,0,4.9-2.9,4.9-6.4c0-3.1-1.6-6.2-4.9-6.2
			C255.2,349.4,253.6,352.4,253.6,355.8z"/>
		<path class="st0" d="M281.5,348v13.7l1.3,0l-0.1,5.3h-1.6l-0.1-3.7h-9.7l-0.1,3.7h-1.5l-0.1-5.3l1.2,0c0.6-1,1.1-2.2,1.5-3.4
			c0.5-1.8,0.7-3.8,0.7-6.5V348H281.5z M274.8,352.5c0,2.5-0.2,4.5-0.8,6.3c-0.3,1.1-0.8,2.1-1.3,2.9h6.8v-12.1h-4.8V352.5z"/>
		<path class="st0" d="M290.8,348v6.4h7.4V348h2v15.4h-2v-7.2h-7.4v7.2h-2V348H290.8z"/>
		<path class="st0" d="M309,348v6.5c0,2.4,0,4.4-0.2,6.5l0,0c0.8-1.6,1.7-3.3,2.8-5.1l5-7.9h2v15.4h-1.9v-6.5c0-2.5,0-4.3,0.2-6.2
			l-0.1,0c-0.8,1.7-1.8,3.5-2.8,5.2l-4.8,7.6h-2.1V348H309z"/>
		<path class="st0" d="M327.5,348v13.7h7V348h2v13.7l1.3,0l-0.1,5.3h-1.6l-0.1-3.7h-10.5V348H327.5z"/>
		<path class="st0" d="M345.8,348v5.7c0.5-0.1,1.4-0.1,1.9-0.1c3.1,0,5.9,1.4,5.9,4.8c0,1.4-0.5,2.5-1.2,3.3
			c-1.3,1.3-3.4,1.8-5.5,1.8c-1.4,0-2.4-0.1-3.1-0.2V348H345.8z M345.8,361.8c0.5,0.1,1,0.1,1.6,0.1c2.2,0,4.1-1.1,4.1-3.4
			c0-2.4-1.9-3.3-4.1-3.3c-0.5,0-1.1,0-1.6,0.1V361.8z"/>
		<path class="st0" d="M361.5,348v6.8h0.6l5.3-6.8h2.4l-5.8,7c2.5,0.3,3.5,1.9,4.3,4c0.6,1.6,1,3,1.7,4.4h-2.1c-0.5-1-1-2.4-1.4-3.6
			c-0.7-2-1.7-3.4-4.3-3.4h-0.6v7h-2V348H361.5z"/>
		<path class="st0" d="M377.9,358.5l-1.6,4.8h-2.1l5.2-15.4h2.4l5.2,15.4H385l-1.6-4.8H377.9z M383,357l-1.5-4.4
			c-0.3-1-0.6-1.9-0.8-2.8h0c-0.2,0.9-0.5,1.8-0.8,2.8l-1.5,4.4H383z"/>
	</g>
	
		<rect x="383.8" y="296.1" transform="matrix(4.833363e-03 -1 1 4.833363e-03 107.7797 705.5584)" class="st0" width="49.1" height="5"/>
	<path class="st0" d="M378.6,280.8c2.4-1.8,6-2.7,10.7-2.7l1.8,0l0-4.6l-1.8,0c-5.8,0-10.4,1.3-13.8,3.8c-3.5,2.6-5.3,6.4-5.3,11.1
		l-0.1,20.2c0,4.7,1.7,8.5,5.2,11.1c3.3,2.5,7.9,3.8,13.8,3.9l1.8,0l0-4.5l-1.8,0c-2.3,0-4.4-0.3-6.2-0.8c-1.7-0.5-3.2-1.2-4.4-2.1
		c-1.1-0.9-2-1.9-2.5-3.2c-0.6-1.3-0.9-2.7-0.9-4.4l0.1-20.2C375.2,285,376.3,282.6,378.6,280.8z"/>
	<polygon class="st0" points="503.3,273.8 487.5,295.5 471.8,273.6 468.4,276 485.5,299.9 485.4,323.6 489.3,323.6 489.4,299.9 
		506.8,276.2 	"/>
	<rect x="1.3" y="273.8" class="st0" width="5" height="49.4"/>
	<polygon class="st0" points="113,323.6 144,323.6 144,319 118,319 118,298.2 137.3,298.2 137.3,293.6 118,293.6 118,277.9 
		144,277.9 144,273.3 113,273.3 	"/>
	<path class="st0" d="M272,273.8l-21.3,48.8l4.9,0.9l5.5-12.5h25.5l5.5,12.5l4.9-0.9l-21.3-48.8H272z M263.2,306.3l10.7-24.6
		l10.8,24.6H263.2z"/>
	<polygon class="st0" points="314.2,273.8 309.2,273.8 309.2,323.6 340.2,323.6 340.2,319 314.2,319 	"/>
	<polygon class="st0" points="19.8,273.8 19.8,323.1 24.8,323.1 24.8,283.3 45.9,312.8 45.9,304.4 24,273.8 	"/>
	<polygon class="st0" points="53,323.1 58.1,323.1 58.1,273.8 53.1,273.8 	"/>
	<polygon class="st0" points="226.2,299.4 235.6,299.4 235.6,316.4 240.5,316.4 240.5,294.8 226.2,294.8 	"/>
	<path class="st0" d="M212.3,315.9c-2.6-2-3.8-4.3-3.8-7.3v-20.3c0-3.1,1.4-5.5,4.4-7.5c2.8-1.9,6.1-2.9,9.7-2.9h5v-4.7h-5
		c-4.7,0-9,1.3-12.7,3.7c-4.3,2.9-6.4,6.7-6.4,11.3v20.3c0,4.4,1.9,8,5.6,10.9c3.6,2.7,8.1,4.1,13.5,4.1h5V319h-5
		C218.4,319,215,318,212.3,315.9z"/>
	<path class="st0" d="M192.1,288.3c0-5.6-2.5-9.8-7.5-12.4c-3.4-1.8-7.6-2.7-12.4-2.7h-2.6v4.7h2.6c4,0,7.4,0.7,10,2.1
		c3.3,1.7,5,4.5,5,8.3c0,3.9-1.4,6.2-4.8,8c-1,0.5-3.9,1.6-5.1,1.9l-1.3,0.3l-0.2,4.7l11.8,20.3l5.4-1.3l-11.7-20.5
		C188.1,299.2,192.1,294.3,192.1,288.3z"/>
	<polygon class="st0" points="157.5,323.1 162.5,323.1 162.7,273.3 157.5,273.3 	"/>
	<g>
		<polygon class="st0" points="438,282.3 437.8,325.1 442.9,325.1 443.5,282.3 		"/>
		<polygon class="st0" points="443.6,273.7 443.6,273.7 423,273.6 422.9,278.4 460.4,278.5 460.4,273.8 		"/>
	</g>
	<g>
		<polygon class="st0" points="87.6,273 87.6,273 67.3,273 67.3,277.7 104.1,277.7 104.1,273 		"/>
		<polygon class="st0" points="82.1,281.5 82.1,323.5 87.2,323.5 87.6,281.5 		"/>
	</g>
	<g>
		<path class="st1" d="M146.5,179.6c1-9.5,6-30.2,13.3-49.7C169,105.4,186.2,71.6,217,44c5.3-4.7,10.5-8.9,15.6-12.7
			c-13.1,5.9-27,13.9-40.9,24.7c-57.7,44.9-57.8,104.6-57.8,104.6s-0.9,24.7,14.3,39.9C145.9,193.4,145.8,185.9,146.5,179.6z"/>
		<path class="st1" d="M368.7,50.1c-2.1-4.7-4.9-8.9-8.3-12.7c0.7,2.5,1.3,5.1,1.7,7.8c5.8,37.2-11.4,86.4-46.7,139.7
			c-3.4,5.1-7.2,9.6-11.4,13.8c14.9-6.9,27.4-15.9,35.4-27.4C371.9,124.2,379.2,72.8,368.7,50.1z"/>
		<path class="st2" d="M287.4,15.7c15.7-2,33.4-0.3,48.4,5.5c10.2,4,18.4,9.4,24.6,16.2c-3.4-11.7-9.9-20.8-19.6-27.3
			c-11-7.4-25.1-10.2-38.3-8.6c-15.8,1.9-41.1,8.6-69.9,29.8C254.1,21.6,273.6,17.4,287.4,15.7z"/>
		<path class="st2" d="M160.6,208.7c-5-2-9.1-4.9-12.4-8.2c2.3,7.3,6.7,14.3,14.7,19.7c25.2,17,100.8,17.9,141.1-21.6
			C257.9,219.8,188.8,220.2,160.6,208.7z"/>
		<path class="st3" d="M287.4,15.7c15.7-2,33.4-0.3,48.4,5.5c10.2,4,18.4,9.4,24.6,16.2c-3.4-11.7-9.9-20.8-19.6-27.3
			c-11-7.4-25.1-10.2-38.3-8.6c-15.8,1.9-41.1,8.6-69.9,29.8C254.1,21.6,273.6,17.4,287.4,15.7z"/>
		<path class="st3" d="M160.1,208.3c-4.8-1.9-8.6-4.5-11.8-7.6c2.4,6.9,6.4,14.1,14,19.3c25.2,16.9,98.3,18.8,141.4-21
			C256.9,219.8,188.4,219.8,160.1,208.3z"/>
	</g>
	<g>
		
			<linearGradient id="SVGID_9_" gradientUnits="userSpaceOnUse" x1="2681.0359" y1="136.6351" x2="2718.3647" y2="136.6351" gradientTransform="matrix(-0.998 -6.271042e-02 -6.271042e-02 0.998 2951.365 92.6318)">
			<stop  offset="0" style="stop-color:#B1B1B0"/>
			<stop  offset="6.385764e-02" style="stop-color:#C1C1C1"/>
			<stop  offset="0.195" style="stop-color:#EAEAEA"/>
			<stop  offset="0.2005" style="stop-color:#ECECEC"/>
			<stop  offset="0.2914" style="stop-color:#D0D0CF"/>
			<stop  offset="0.4933" style="stop-color:#828282"/>
			<stop  offset="0.5371" style="stop-color:#6F6F6E"/>
			<stop  offset="1" style="stop-color:#9B9B9B"/>
		</linearGradient>
		<path class="st12" d="M264.8,54.1c0,0-6.5-1.9-15.5,1.7c-9,3.6-11.6,6.3-14.2,8.4c-2.6,2.2-6,5.6-6,5.6s1.3-4.6,7.9-11
			c6.5-6.4,12.7-8.4,15.8-9.2c3.3-0.8,8.9-1.1,12.5,0.6c1.8,0.8,2.5,2,2.2,2.8C267.1,54.5,264.8,54.1,264.8,54.1z"/>
		
			<linearGradient id="SVGID_10_" gradientUnits="userSpaceOnUse" x1="2629.7371" y1="245.9685" x2="2754.5151" y2="245.9685" gradientTransform="matrix(-0.998 -6.271042e-02 -6.271042e-02 0.998 2951.365 92.6318)">
			<stop  offset="0" style="stop-color:#B1B1B0"/>
			<stop  offset="6.385764e-02" style="stop-color:#C1C1C1"/>
			<stop  offset="0.195" style="stop-color:#EAEAEA"/>
			<stop  offset="0.2005" style="stop-color:#ECECEC"/>
			<stop  offset="0.2914" style="stop-color:#D0D0CF"/>
			<stop  offset="0.4933" style="stop-color:#828282"/>
			<stop  offset="0.5371" style="stop-color:#6F6F6E"/>
			<stop  offset="1" style="stop-color:#9B9B9B"/>
		</linearGradient>
		<path class="st13" d="M222.5,163.3c16.6-3.7,39.4-6.8,57.1-6.5c19.6,0.3,24.6,1.4,29,4c1,0.6,2.1,1.8,2.6,3.1
			c1.1,2.6,0.8,5.8-1.4,7.7c-6.3,5.3-20.5,3.7-20.5,3.7c0.4,0,16.2-0.8,10.8-9c-3.6-5.5-30.2-4.5-48.6-3.2
			c-34.4,2.5-62.7,12.5-65.6,17.1C185.9,175.6,195.2,169.3,222.5,163.3z"/>
		
			<linearGradient id="SVGID_11_" gradientUnits="userSpaceOnUse" x1="2660.3792" y1="166.0905" x2="2735.844" y2="166.0905" gradientTransform="matrix(-0.998 -6.271042e-02 -6.271042e-02 0.998 2951.365 92.6318)">
			<stop  offset="0" style="stop-color:#B1B1B0"/>
			<stop  offset="6.385764e-02" style="stop-color:#C1C1C1"/>
			<stop  offset="0.195" style="stop-color:#EAEAEA"/>
			<stop  offset="0.2005" style="stop-color:#ECECEC"/>
			<stop  offset="0.2914" style="stop-color:#D0D0CF"/>
			<stop  offset="0.4933" style="stop-color:#828282"/>
			<stop  offset="0.5371" style="stop-color:#6F6F6E"/>
			<stop  offset="1" style="stop-color:#9B9B9B"/>
		</linearGradient>
		<path class="st14" d="M209.2,107.7c0,0-0.9-5.7,7.9-13.6c9.6-8.6,23.4-16.5,36.7-20.7c13.3-4.2,24.4-3.9,27.8-2.7s4.8,2.1,5.1,5.3
			c0.2,2.8-3.8,5.7-7,6.6c-1.9,0.5-5.4,1-7.1,1.1c3.6-1.5,8.5-2.7,7.2-6.4c-1.3-3.5-9.3-2.9-17.9-1.5c-1.8,0.3-3.2,0.5-4.8,1
			c-7,1.6-14.6,5.2-14.6,5.2s-10.8,4.7-20.4,11.7c-6.5,4.8-9.8,8.1-12.2,12.4C209.5,107,209.2,107.7,209.2,107.7z"/>
		
			<linearGradient id="SVGID_12_" gradientUnits="userSpaceOnUse" x1="2669.9666" y1="150.7721" x2="2728.7676" y2="150.7721" gradientTransform="matrix(-0.998 -6.271042e-02 -6.271042e-02 0.998 2951.365 92.6318)">
			<stop  offset="0" style="stop-color:#B1B1B0"/>
			<stop  offset="6.385764e-02" style="stop-color:#C1C1C1"/>
			<stop  offset="0.195" style="stop-color:#EAEAEA"/>
			<stop  offset="0.2005" style="stop-color:#ECECEC"/>
			<stop  offset="0.2914" style="stop-color:#D0D0CF"/>
			<stop  offset="0.4933" style="stop-color:#828282"/>
			<stop  offset="0.5371" style="stop-color:#6F6F6E"/>
			<stop  offset="1" style="stop-color:#9B9B9B"/>
		</linearGradient>
		<path class="st15" d="M244.4,63.9c14.2-7.7,30.2-7.9,33.3-2.7c1,1.7-0.3,4.3-1.7,5.5c-1.4,1.2-3.7,2.1-6.9,2.4c0,0,0,0,0,0
			c3.2-1.5,4.4-2.9,3.9-4.9c-0.8-2.9-6.8-3.5-13.8-1.8c-6.4,1.5-11.2,3.5-15.2,5.5c-13.6,7-23.8,15.4-26.4,21.4
			C216.6,82.9,228.6,72.5,244.4,63.9z"/>
		
			<linearGradient id="SVGID_13_" gradientUnits="userSpaceOnUse" x1="2642.7722" y1="195.8801" x2="2745.1321" y2="195.8801" gradientTransform="matrix(-0.998 -6.271042e-02 -6.271042e-02 0.998 2951.365 92.6318)">
			<stop  offset="0" style="stop-color:#B1B1B0"/>
			<stop  offset="6.385764e-02" style="stop-color:#C1C1C1"/>
			<stop  offset="0.195" style="stop-color:#EAEAEA"/>
			<stop  offset="0.2005" style="stop-color:#ECECEC"/>
			<stop  offset="0.2914" style="stop-color:#D0D0CF"/>
			<stop  offset="0.4933" style="stop-color:#828282"/>
			<stop  offset="0.5371" style="stop-color:#6F6F6E"/>
			<stop  offset="1" style="stop-color:#9B9B9B"/>
		</linearGradient>
		<path class="st16" d="M266.9,100.9c19.3-3.9,30.8,0.3,30.8,0.3s6,2,4.5,6.5c-0.6,2-2.2,3.4-3.8,4.4c-1.9,1.2-4,1.9-6.3,2.2
			c-2,0.3-4.9,0.6-6.2,0.3c0,0,0-0.1,0.1-0.1c4.3-1.2,8.4-2.9,7.8-5.7c-0.9-4-8-4.8-21.3-3.8c-8.6,0.7-23.3,4.4-34.9,8.6
			c-5.9,2.1-10.6,3.8-16.4,6.7c-11,5.6-19.8,11.3-23.1,17.7C196.6,133.7,207.7,112.9,266.9,100.9z"/>
		
			<linearGradient id="SVGID_14_" gradientUnits="userSpaceOnUse" x1="2636.3521" y1="212.6694" x2="2748.7327" y2="212.6694" gradientTransform="matrix(-0.998 -6.271042e-02 -6.271042e-02 0.998 2951.365 92.6318)">
			<stop  offset="0" style="stop-color:#B1B1B0"/>
			<stop  offset="6.385764e-02" style="stop-color:#C1C1C1"/>
			<stop  offset="0.195" style="stop-color:#EAEAEA"/>
			<stop  offset="0.2005" style="stop-color:#ECECEC"/>
			<stop  offset="0.2914" style="stop-color:#D0D0CF"/>
			<stop  offset="0.4933" style="stop-color:#828282"/>
			<stop  offset="0.5371" style="stop-color:#6F6F6E"/>
			<stop  offset="1" style="stop-color:#9B9B9B"/>
		</linearGradient>
		<path class="st17" d="M270.8,118.5c12.9-2.2,25.6-0.9,30.9,0.8c5.3,1.7,6.9,5.8,5.6,8.7c-0.8,1.8-2.5,3.1-5.4,4.3
			c-4.6,1.9-14.3,2.1-14.3,2.1s0.1-0.1,0.2-0.2c6-1,10.3-3.4,10.1-6.1c-0.2-3.3-4.5-4.9-12.6-4.9c-12.5,0.1-36.7,4.2-59.5,11.9
			c-14.6,5-30.2,13-32.3,18.4C192,144.1,221,126.8,270.8,118.5z"/>
		
			<linearGradient id="SVGID_15_" gradientUnits="userSpaceOnUse" x1="2631.9114" y1="229.5699" x2="2752.0645" y2="229.5699" gradientTransform="matrix(-0.998 -6.271042e-02 -6.271042e-02 0.998 2951.365 92.6318)">
			<stop  offset="0" style="stop-color:#B1B1B0"/>
			<stop  offset="6.385764e-02" style="stop-color:#C1C1C1"/>
			<stop  offset="0.195" style="stop-color:#EAEAEA"/>
			<stop  offset="0.2005" style="stop-color:#ECECEC"/>
			<stop  offset="0.2914" style="stop-color:#D0D0CF"/>
			<stop  offset="0.4933" style="stop-color:#828282"/>
			<stop  offset="0.5371" style="stop-color:#6F6F6E"/>
			<stop  offset="1" style="stop-color:#9B9B9B"/>
		</linearGradient>
		<path class="st18" d="M221.4,147.5c13.4-4.2,24.6-7.9,51.7-10.1c13.9-1.1,25.4,0,31,2s7.6,5.4,6.6,9.6c-0.5,2.1-2.2,4-5.2,5.2
			c-4.9,1.9-9.4,1.8-13.1,1.6c6.4-0.7,10-4,9.6-7.6c-0.4-3.3-7.5-5.5-16.2-5.9c-13.2-0.5-21.7,0.5-28.9,1.5
			c-36.4,5.3-65.2,18.6-67.3,23.6C187.2,159,215.3,149.9,221.4,147.5z"/>
		
			<linearGradient id="SVGID_16_" gradientUnits="userSpaceOnUse" x1="2650.7322" y1="181.061" x2="2740.7522" y2="181.061" gradientTransform="matrix(-0.998 -6.271042e-02 -6.271042e-02 0.998 2951.365 92.6318)">
			<stop  offset="0" style="stop-color:#B1B1B0"/>
			<stop  offset="6.385764e-02" style="stop-color:#C1C1C1"/>
			<stop  offset="0.195" style="stop-color:#EAEAEA"/>
			<stop  offset="0.2005" style="stop-color:#ECECEC"/>
			<stop  offset="0.2914" style="stop-color:#D0D0CF"/>
			<stop  offset="0.4933" style="stop-color:#828282"/>
			<stop  offset="0.5371" style="stop-color:#6F6F6E"/>
			<stop  offset="1" style="stop-color:#9B9B9B"/>
		</linearGradient>
		<path class="st19" d="M206.7,114.8c3.2-4.3,13.4-12.3,27.9-19.1c17.3-8.1,29.2-9.7,36.6-10.6c9.7-1.2,20.5-0.4,23.2,2.9
			s-0.2,6.3-2.7,8c-2,1.3-7.9,2.7-10.9,2c4.2-1.1,6.5-3.1,6.4-5.1c-0.2-2.7-3-5.3-15.9-4c-15.1,1.3-31.2,8.4-31.2,8.4
			s-13,5.6-21.2,11.1s-12.9,10.1-14,11.8c-1.2,1.7-1.5,2.9-1.5,2.9S203.1,119.7,206.7,114.8z"/>
	</g>
</g>
</svg>
