<?xml version="1.0" encoding="utf-8"?>
<!-- Generator: Adobe Illustrator 22.1.0, SVG Export Plug-In . SVG Version: 6.00 Build 0)  -->
<svg version="1.1" id="Слой_1" xmlns="http://www.w3.org/2000/svg" xmlns:xlink="http://www.w3.org/1999/xlink" x="0px" y="0px"
	 viewBox="0 0 1128.5 236.9" style="enable-background:new 0 0 1128.5 236.9;" xml:space="preserve">
<style type="text/css">
	.st0{fill:#292929;}
</style>
<path class="st0" d="M771.4,0v7.7c2,0.1,4,0.2,6.1,0.3v70.7c2.7,0,5.3,0.1,7.8,0.1c2.5,0,5,0,7.4,0c2.6,0,5.1,0,7.7,0
	c2.5,0,5,0,7.4,0c2.6,0,5.1,0,7.7,0c2.5,0,4.9,0,7.3,0c0.7,2.2,0.7,44.8,0.1,47.2c-6.6,0.2-11.5,3.7-15.1,8.8
	c-2,2.9-3.5,6.4-2.3,10.7c0.3-0.7,0.6-1.1,0.7-1.5c0.7-2.5,1.8-4.7,3.6-6.6c2.5-2.6,5.2-4.6,8.7-5.6c2.8-0.8,5.6-1.3,8.4-1
	c7.2,0.8,14.2,4.6,16.6,12.2c1.6,5,0.7,9.8-2.9,13.8c-2.5,2.8-5.4,4.8-9,5.9c-3,0.9-3.2,1.5-2.4,5.1c4.1,0.3,8.3,0.6,12.5,0.9
	c0,0,0,0,0.1,0.1c0.1,0.1,0.1,0.1,0.1,0.2c0.1,21.2,0.1,42.4,0.1,63.6c0,0.6,0,1.3-0.1,1.9c0,0.1-0.1,0.3-0.4,0.6
	c-0.9,0-1.9,0.1-2.9,0.1c-47.8,0-95.7,0-143.5,0c-15.6,0-31.2,0-46.8,0c-3.7,0-3.7,0-3.7-3.7c0-6.5,0-13,0-19.4
	c0-1.3,0.3-2.3,1.3-3.2c3.7-3.6,7.5-7,11.8-9.9c3-2.1,5.9-4.5,9-6.5c3.3-2.1,6.8-4,10.3-6c2.2-1.3,4.4-2.6,6.7-3.6
	c5.5-2.5,10.9-5,16.6-7.1c5.2-2,10.5-3.9,15.8-5.6c2.6-0.9,5.3-1.6,8.1-2.5c0.3-5.3,0.1-10.7,0.1-16c0-5.3,0-10.6,0-15.8
	c0-5.4,0-10.7,0-16.1c0-5.3,0-10.6,0-15.8c0-5.4,0-10.7,0-16.1c0-5.3,0-10.6,0-15.8c0-5.4,0-10.7,0-16.1V40.2V24.1V8
	c2.1-0.1,4.1-0.2,6.2-0.3c0.1-2.6,0.2-5.2,0.3-7.7L771.4,0L771.4,0z M690.9,193.8c0.9-0.3,1.3-0.4,1.8-0.6
	c6.4-2.8,12.7-5.7,19.2-8.2c4.4-1.7,9-2.8,13.5-4.3c5.1-1.7,10.3-2.8,15.5-4c2.9-0.7,5.9-1.3,8.8-1.9c4.1-0.8,8.2-1.7,12.3-2.4
	c3.7-0.6,7.5-1,11.2-1.4c3.6-0.4,7.2-0.7,10.9-1.1c0.3,0,0.6,0,1,0c3.5-0.4,7-1.1,10.6-1.3c7.7-0.3,15.5-0.4,23.2-0.6
	c1,0,1.9,0,2.9,0c0.6,0,1.2-0.2,2.2-0.3c-0.4-1.4-0.7-2.5-1-3.9c-2.2,0-4.2,0-6.2,0c-4.6,0-9.3-0.1-13.9,0
	c-4.7,0.1-9.4,0.4-14.1,0.6c-0.3,0-0.6,0-1,0c-3.2,0.3-6.4,0.7-9.7,1.1c-2.7,0.3-5.5,0.6-8.2,0.9c-1.7,0.2-3.5,0.3-5.2,0.6
	c-2.9,0.5-5.9,1.2-8.8,1.7c-3,0.5-6,0.7-8.9,1.4c-4.7,1-9.4,2.1-14,3.3c-4.3,1.1-8.7,2.3-12.9,3.7c-4.3,1.4-8.5,3.1-12.6,4.7
	c-3.2,1.3-6.4,2.7-9.6,4.2c-1.9,0.9-3.8,1.9-5.7,2.8c-0.8,0.4-1.2,1-1.2,1.9C690.9,191.7,690.9,192.5,690.9,193.8 M760.2,38.5
	c-1.7-0.9-3.4-0.5-5-0.5c-1.5,0-1.8,0.3-1.8,1.9c-0.1,1.5-0.1,3-0.1,4.6c0,2.5,0,5,0,7.4c0,0.8,0.1,1.7,1.1,1.8
	c1.9,0.1,3.8,0.4,5.8-0.3V38.5z M760.1,15.2c-1.9,0-3.5,0-5.2,0c-1.1,0-1.5,0.6-1.5,1.7c0,4.1,0,8.1,0,12.2c0,1.2,0.5,1.8,1.7,1.8
	c1,0,1.9,0,2.9,0c2.2-0.1,2.3-0.1,2.4-2.3c0-3.7,0-7.5,0-11.2C760.3,16.7,760.2,16.2,760.1,15.2 M800.4,84.9
	c-0.1,1.2-0.1,2.1-0.1,2.9c0,3,0,5.9,0,8.9c0,4.1,0,4.1,4.1,4c2.3-0.1,2.5-0.2,2.5-2.4c0-3.8,0-7.5,0-11.3c0-0.7-0.2-1.4-0.3-2.1
	C806.6,84.9,800.4,84.9,800.4,84.9z M742.1,53.6c1.7,0,3.3,0.1,4.8,0.1c1.5,0,1.8-0.3,1.8-1.9c0.1-3,0-6.1,0-9.1
	c0-1.1,0-2.2-0.1-3.3c0-0.8-0.5-1.4-1.3-1.4c-1.7,0-3.4,0-5.3,0.1L742.1,53.6L742.1,53.6z M736.8,37.9c-1.7,0-3.1,0-4.6,0
	c-1.8,0.1-2,0.3-2.1,2.2c-0.1,2.8,0,5.6,0,8.4c0,1.2,0,2.4,0,3.6c0,0.8,0.2,1.5,1.1,1.5c1.8,0.1,3.6,0.4,5.5-0.3L736.8,37.9
	L736.8,37.9z M795.1,84.8c-1.7,0-3.2,0-4.8,0c-1.2,0-1.7,0.5-1.7,1.7c0,1.9,0,3.8,0,5.7c0,2.1,0,4.3,0,6.4c0.1,1.6,0.4,1.9,2,2
	c0.9,0.1,1.8,0,2.6,0c1.9-0.1,2.2-0.3,2.2-2.3c0-3.8,0-7.6,0-11.5C795.4,86.3,795.2,85.7,795.1,84.8 M812,84.9
	c-0.1,1.1-0.2,1.9-0.2,2.8c0,2.9,0,5.7,0,8.6c0,4.5-0.5,4.4,4.7,4.3c1.7,0,2-0.3,2-2c0-4.1,0-8.3,0-12.4c0-0.4-0.1-0.8-0.3-1.3
	C818.2,84.9,812,84.9,812,84.9z M765.2,45.6L765.2,45.6c0,1.3,0,2.5,0,3.8c0.1,4.5-0.7,4.3,4.5,4.3c2.1,0,2.3-0.2,2.3-2.4
	c0-3,0-6.1,0-9.1c0-4.5,0.7-4.5-5-4.3c-1.5,0-1.8,0.4-1.8,1.9C765.1,41.8,765.2,43.7,765.2,45.6 M765.7,15.2
	c-0.3,0.6-0.4,0.8-0.4,0.9c0,4.4-0.1,8.8-0.1,13.1c0,1.1,0.6,1.6,1.7,1.6c1,0,2.1,0,3.1,0c1.6-0.1,1.9-0.3,2-2c0.1-2,0-4,0-6
	c0-2,0-4,0-6c0-0.9-0.3-1.6-1.3-1.6C768.9,15.2,767.3,15.2,765.7,15.2 M742.3,15.4c-0.3,1.3-0.7,13.6-0.3,14.4
	c0.2,0.4,0.7,0.9,1.1,1c1,0.2,2.1,0.1,3.1,0.1c2.3,0,2.5-0.2,2.5-2.5c0-3.6,0-7.2,0-10.8c0-0.7-0.2-1.4-0.3-2.2L742.3,15.4z
	 M730.7,30.7c2,0.2,4,0.3,5.9-0.1c0.6-2.9,0.5-13.4-0.2-15.2h-5.8C730,17.7,730,28.4,730.7,30.7 M777,84.9c0,1.9,0,3.5,0,5
	c0,2.9,0,5.9,0,8.8c0,0.8,0.1,1.7,1.1,1.8c1.7,0.1,3.5,0.4,5.3-0.4c0-5,0.2-10.1-0.1-15.2H777z"/>
<path class="st0" d="M1128.5,234.7c-31.9,0-63.8,0-95.7,0c-1.8,0-3.5,0-5.3,0c-0.6,0-1.2-0.1-2-0.2c-0.1-0.7-0.1-1.4-0.1-2
	c0-6.4,0-12.8,0-19.2c0-2.4,0.1-2.6,2.6-2.6c1.7,0,3.4,0,5,0c1.6-0.1,1.9-0.4,2.5-2c1.6-4.7,3.3-9.4,4.8-14.1c0.9-2.8,1.4-5.7,2-8.5
	c1-4.5,2.1-9,3.1-13.6c0.6-2.6,0.9-5.3,1.4-7.9c0.4-2.2,0.8-4.3,1.1-6.5c0.3-2.3,0.5-4.7,0.8-7c0.3-2.7,0.7-5.3,1.1-8
	c0-0.2,0.1-0.5,0.1-0.7c0.2-3.8,0.4-7.6,0.6-11.4c0.1-1.5-0.3-3,0.7-4.4c0.2-0.2,0.1-0.6,0.1-0.9c0.2-6.3,0.1-12.6,0.6-18.9
	c0.4-5.7,0-11.3,0.6-16.9c0.6-5.1-0.1-10.2,0.6-15.3c0.8-6.4,0.3-12.7,0.6-19.1c0-0.2,0.1-0.5,0.2-0.7c1.8-0.5,56.5-0.6,60.7-0.2
	c0.1,1.1,0.2,2.2,0.2,3.4c0,31.3,0,62.7,0,94c0,18.4,0,36.8,0,55.2c0,1.1,0.1,2.2,0.2,3.6h13.6L1128.5,234.7L1128.5,234.7z
	 M1089,210.6c0.6-2.6,0.6-130.1-0.1-132.1c-4.7,0-9.4-0.2-14.3,0.1c0,1-0.1,1.7-0.1,2.5c-0.3,6.4,0.2,12.9-0.5,19.4
	c-0.7,5.9-0.1,11.9-0.7,17.9c-0.6,5.3-0.4,10.7-0.6,16c0,0.2,0,0.5-0.1,0.7c-1.3,3.2-0.2,6.8-1.2,10.1c-0.6,1.9-0.5,4.1-0.6,6.1
	c-0.2,4.3-0.5,8.5-1.3,12.7c-0.7,3.3-0.8,6.8-1.2,10.1c-0.4,3.1-0.8,6.3-1.4,9.4c-0.9,4.4-2,8.8-3.1,13.1c-0.8,3.2-1.7,6.4-2.6,9.6
	c-0.4,1.4-1.4,2.7-0.8,4.5L1089,210.6L1089,210.6z"/>
<path class="st0" d="M0,78.7c7.8,0,15.5,0.1,23.3,0.1c0.9,0,1.9,0,3.1,0c0.1,1.3,0.2,2.4,0.2,3.5c0,39.1,0,78.2,0,117.3
	c0,10.6,0,21.3,0,31.9c0,0.6,0,1.3,0,1.9c-0.1,1.6-0.3,1.9-1.8,1.9c-8.2,0-16.5-0.1-24.7-0.1V78.7z"/>
<rect y="53.8" class="st0" width="21.4" height="19.7"/>
<path class="st0" d="M121.8,54.5v180.6c-0.8,0.1-1.5,0.3-2.2,0.3c-7,0-13.9,0-20.9,0c-0.4,0-0.8,0-1.2-0.1c-0.9-0.1-1.5-0.6-1.5-1.6
	c0-0.8,0-1.6,0-2.4c0-25.4,0-50.7,0-76.1v-3.3c-8-0.2-15.6-0.1-23.5-0.1c-0.3,5.7-0.1,11.2-0.1,16.7c0,5.5,0,11,0,16.6
	c0,5.6,0,11.2,0,16.8c0,5.5,0,11,0,16.6c0,5.5,0,11,0,16.7c-1.1,0.1-2,0.2-2.8,0.2c-6.6,0-13.3,0-19.9,0c-3.1,0-3.2-0.2-3.2-3.3
	c0-29,0-57.9,0-86.9c0-29,0-58.1,0-87.1c0-1.2,0.1-2.3,0.2-3.6h25.8v73.4c1.9,0.6,19.7,0.8,23.4,0.3c0.1-0.9,0.2-1.9,0.2-2.9
	c0-13.8,0-27.7,0-41.5c0-8.7,0-17.4,0-26.2c0-0.9,0-1.9,0-3L121.8,54.5L121.8,54.5z"/>
<path class="st0" d="M606.7,54.4v2.8c0,58.3,0,116.6,0,174.9c0,0.6,0,1.1,0,1.7c-0.1,1-0.6,1.4-1.5,1.5c-0.6,0-1.1,0-1.7,0
	c-6.5,0-13,0-19.4,0c-0.6,0-1.1,0-1.7-0.1c-0.9-0.1-1.5-0.6-1.5-1.6c0-0.9,0-1.8,0-2.6c0-49.7,0-99.3,0-149v-3.6
	c-5.5-0.2-10.6-0.1-15.6-0.1c-0.3,0.4-0.4,0.5-0.4,0.6c-0.3,4-0.7,8.1-0.8,12.1c-0.1,7.8,0.3,15.7-0.1,23.5
	c-0.5,10.6,0,21.2-0.6,31.8c-0.3,6.4-0.2,12.7-0.4,19.1c0,0.3,0.1,0.7,0,1c-1.4,3-0.6,6.1-0.8,9.2c-0.2,4.8-0.3,9.7-0.6,14.6
	c-0.2,3.5-0.6,7.1-1.2,10.6c-1.1,6.3-2.3,12.6-4.9,18.5c-2.1,4.8-5.1,8.8-9.4,12c-3.7,2.8-8,4.3-12.3,5.1c-3.7,0.6-7.6,0.5-11.4-0.5
	c-1-0.3-1.8-0.9-1.8-2.2c0-6.9,0-13.7,0-20.6c1.4-0.9,2.9-1.3,4.5-1.4c3.4-0.3,6.6-1.6,8.8-4.2c1.3-1.6,2.3-3.7,2.9-5.7
	c0.9-3,1.6-6.1,2-9.2c0.4-3.4,0.3-6.8,0.7-10.2c0.7-5.1,0.2-10.2,0.7-15.2c0.4-3.8,0.1-7.5,0.4-11.2c0.6-6-0.1-12,0.7-17.9
	c0.9-6.3,0-12.6,0.7-18.8c0.9-8.9-0.1-17.9,0.6-26.8c0.9-11.7,0.2-23.3,0.5-34.9c0-0.6,0-1.1,0-1.7c0-0.9,0.5-1.5,1.5-1.5
	c0.4,0,0.8,0,1.2,0c19.6,0,39.2,0,58.8,0C605.1,54.3,605.7,54.4,606.7,54.4"/>
<path class="st0" d="M882.3,78.8h25.5c0-2.8,0.1-5.4,0.1-8.1c0-2.7,0-5.4,0-8.2c0-2.6,0-5.3,0-7.8c1.9-0.5,38.2-0.7,42.5-0.3
	c0.5,1.7,0.6,19.6,0.2,23.7c-0.9,0.1-1.9,0.2-2.9,0.2c-12,0-24,0-36,0c-1.1,0-2.2,0.1-3.4,0.2v47.6c0.7,0.1,1.2,0.3,1.9,0.3
	c1.1,0.1,2.2,0.1,3.4,0c5.2-0.3,10.4,0.3,15.4,1.4c4.7,1,9.1,2.9,13,6c2.9,2.3,5,5,7.1,7.9c1.8,2.5,2.7,5.4,3.7,8.2
	c1.1,3.4,1.9,6.8,2.5,10.3c0.4,3,0.2,6.1,0.9,9c1,4.7,0.6,9.4,0.5,14c0,3.5-0.8,7-1.2,10.6c-0.2,1.8-0.3,3.6-0.7,5.4
	c-0.4,2.6-0.9,5.1-1.6,7.6c-0.9,3.2-1.8,6.4-3.1,9.4c-1.5,3.6-3.9,6.7-6.7,9.4c-3.3,3.3-7.4,5.3-11.8,6.9c-3.5,1.3-7.2,1.6-10.9,2
	c-11.8,1.2-23.6,0.2-35.4,0.6c-0.6,0-1.2,0.1-1.7-0.1c-0.5-0.2-1-0.7-1.2-1.3c-0.2-0.7-0.1-1.4-0.1-2.1c0-50,0-100,0-150
	C882.3,81,882.3,80.1,882.3,78.8 M908.6,213.2c2.4,0,4.7-0.1,7,0c6.2,0.4,10.4-5.2,11.8-10c0.7-2.2,1-4.6,1.2-7
	c0.3-4.1,0.2-8.2,0.6-12.4c0.4-3.7,0.4-7.6-0.4-11.4c-0.6-2.7-0.2-5.5-0.7-8.3c-0.7-4.3-1.4-8.5-4.4-12c-1.5-1.7-3.2-3.1-5.2-3.4
	c-3.3-0.4-6.7-0.1-9.9-0.1C908,150.9,908,210.6,908.6,213.2"/>
<path class="st0" d="M321,163.4v71.7c-1.1,0.1-2.1,0.2-3,0.2c-6.5,0-13,0-19.4,0c-3.4,0-3.5-0.1-3.5-3.5c0-29.3,0-58.6,0-87.8
	c0-28.6,0-57.3,0-85.9c0-1.2,0.1-2.3,0.2-3.8c1.2,0,2.1,0,3.1,0c11.2,0,22.4,0,33.6,0c4.1,0,8,0.8,11.8,2.2
	c6.4,2.4,11.4,6.5,15.2,12.1c2.2,3.2,3.9,6.8,4.9,10.7c1,3.7,2.1,7.4,2.9,11.2c0.5,2.2,0.4,4.6,0.8,6.8c1.1,6.4,0.4,12.9,0.5,19.3
	c0,2.9-0.6,5.8-1,8.7c-0.4,2.5-0.8,5-1.3,7.5c-1.2,5.4-2.9,10.7-5.9,15.4c-3.8,6-9.1,10.5-16.1,12.6c-2.4,0.7-4.9,1.2-7.4,1.7
	c-4.3,0.8-8.6,0.3-12.9,0.5C322.7,163.2,322,163.3,321,163.4 M321.2,137.8c3.6,0,7,0.2,10.3-0.1c2.1-0.1,3.8-1.4,5.1-3.2
	c2.4-3.2,2.2-7.2,3.1-10.8c-0.4-11.4,0.8-22.8-0.6-34.1c-0.3-2.3-0.7-4.6-1.6-6.6c-1.2-2.9-3.6-5.1-6.6-5.7
	c-3.1-0.6-6.3-0.1-9.6-0.1L321.2,137.8L321.2,137.8z"/>
<path class="st0" d="M456.8,54.3c1.4,0,2.8,0,4.1,0c6.6,0,13.3,0,19.9,0c2.6,0,2.5,0.1,2.8,2.7c0.2,2.1,0.7,4.2,1.1,6.3
	c0.2,1.4,0.6,2.8,0.7,4.2c0.3,2,0.3,3.9,0.7,5.9c0.3,1.9,0.8,3.8,1.2,5.7c0.3,1.4,0.5,2.8,0.7,4.2c0.4,3.3,0.8,6.6,1.3,9.9
	c0.7,4.6,1.6,9.2,2.4,13.7c0.3,1.9,0.5,3.9,0.7,5.9c0.2,1.6,0.5,3.1,0.7,4.7c0.6,3.7,1.1,7.5,1.7,11.2c0.3,1.6,0.6,3.2,0.9,4.9
	c0.3,1.8,0.7,3.6,1,5.3c0.6,3.7,1.3,7.5,1.8,11.2c0.5,3.4,0.9,6.7,1.4,10.1c0.5,3.3,1.2,6.5,1.7,9.8c0.3,1.6,0.5,3.3,0.7,4.9
	c0.2,1.9,0.2,3.8,0.7,5.7c0.4,1.5,0.7,2.9,0.8,4.4c0.2,2.4,0.7,4.7,1,7c0.2,1.3,0.4,2.6,0.7,4c0.6,3.4,1.2,6.8,1.8,10.2
	c0.5,3.1,0.9,6.3,1.4,9.4c0.5,3.3,1.2,6.5,1.7,9.8c0.3,2.1,0.6,4.2,0.9,6.3c0.2,1.1,0.4,2.1,0.7,3.4c-1.1,0.1-1.8,0.2-2.6,0.2
	c-6.6,0-13.1,0-19.7,0c-0.5,0-1,0-1.4,0c-1-0.1-1.6-0.6-1.7-1.6c-0.4-3.7-0.6-7.4-1.3-11.1c-0.5-2.4,0.1-5-1.2-7.2
	c-0.1-0.2,0-0.6-0.1-0.9c-0.3-2.8-0.7-5.6-1-8.5c-0.3-2.4-0.4-4.9-0.7-7.3c-0.3-2.5-0.7-5-1.1-7.5c-0.1-0.8-0.2-1.6-0.1-2.4
	c0.1-1.3-0.2-2.5-1.2-3.6h-21.1c-0.3,1.7-0.5,3.3-0.7,4.9c-0.4,2.9-0.7,5.8-1.1,8.7c0,0.3-0.1,0.6-0.1,0.9
	c-0.4,3.6-0.9,7.2-1.2,10.9c-0.3,2.8-0.4,5.5-0.6,8.3c-0.1,0.8-0.3,1.5-0.5,2.3c-0.1,0.3-0.2,0.6-0.2,0.9c-0.2,2.6-0.4,5.2-0.6,7.8
	c-0.2,1.6-0.5,3.3-0.7,4.8c-1.9,0.6-21.3,0.7-23.8,0.1c0-0.4-0.1-0.9-0.1-1.3c0.4-2.3,0.8-4.7,1.2-7c0.6-3.3,1.2-6.7,1.7-10
	c0.3-1.8,0.5-3.6,0.8-5.4c0.4-2.6,0.6-5.1,1.2-7.7c0.7-3.1,0.8-6.3,1.3-9.4c0.3-1.9,0.7-3.7,1.1-5.6c0.1-0.5,0.2-0.9,0.3-1.4
	c0.4-2.4,0.7-4.8,1.1-7.2c0.3-1.8,0.5-3.6,0.8-5.4c0.6-3.7,1.2-7.3,1.8-11c0.3-1.6,0.4-3.1,0.6-4.7c0.2-2,0.4-3.9,0.6-5.9
	c0.2-1.3,0.6-2.6,0.8-3.9c0.6-3.3,1.1-6.7,1.6-10c0.5-3.5,0.9-7,1.4-10.6c0.2-1.2,0.4-2.3,0.6-3.5c0.6-3.4,1.2-6.8,1.8-10.2
	c0.3-1.8,0.6-3.6,0.8-5.4c0.4-3.1,0.5-6.4,1.2-9.4c1-4,1.3-8.1,1.9-12.1c0.5-3.3,1.2-6.5,1.8-9.7c0.3-1.6,0.4-3.3,0.7-4.9
	c0.4-3.3,0.9-6.6,1.4-9.9C455.7,60.4,456.3,57.5,456.8,54.3 M477.9,162.8c-0.2-1.7-0.5-3.1-0.6-4.5c-0.3-2.5-0.5-5-0.9-7.5
	c-0.3-2.4-0.8-4.8-1-7.3c-0.3-2.6-0.4-5.2-0.6-7.8c0-0.3-0.1-0.6-0.2-0.9c-0.4-2.6-0.8-5.3-1.2-7.9c-0.3-2.2-0.4-4.4-0.6-6.6
	c-0.3-2.6-0.9-5.1-1.2-7.7c-0.3-3-0.5-6-0.7-9c0-0.3,0-0.6-0.1-1c-0.4-3.8-0.8-7.5-1.2-11.3c-0.2-2.4-0.5-4.7-0.7-7.1
	c0-0.1-0.3-0.3-0.8-0.6c-0.1,1.2-0.2,2.2-0.3,3.2c-0.4,3.6-0.9,7.2-1.1,10.8c-0.3,5.2-0.5,10.3-0.7,15.5c0,0.2,0,0.5-0.1,0.7
	c-0.4,3-0.8,6.1-1.2,9.1c-0.3,2.8-0.5,5.5-0.7,8.3c-0.1,1.6-0.3,3.1-0.5,4.7c-0.2,2-0.1,4.2-0.7,6.1c-1,2.9-0.6,5.9-1.2,8.9
	c-0.2,1.2-0.3,2.3-0.5,3.5c-0.2,2.1-0.5,4.2-0.7,6.4c-0.1,0.7,0.1,1.4,0.2,2.1L477.9,162.8L477.9,162.8z"/>
<path class="st0" d="M964.6,235.1v-22.8c1.9,0.1,3.7,0.2,5.6,0.3c0.8,0.1,1.6,0.2,2.3,0.4c0.3,0.1,0.6,0.2,0.9,0.1
	c3.6-0.5,7.2-0.9,10.2-3.3c0.3-0.2,0.7-0.5,0.9-0.8c1.5-2.7,3.2-5.3,3.9-8.4c0.6-2.9,1.2-5.7,2-8.5c0.9-3,0.4-6-0.2-8.9
	c-1.2-5-2.4-10-3.7-14.9c-1.1-4.3-2.3-8.7-3.4-13c-1.6-6.5-3.1-13-4.8-19.5c-1.1-4.5-2.4-9-3.5-13.5c-1.4-5.5-2.7-11-4.1-16.5
	c-1.2-4.7-2.5-9.4-3.7-14.2c-1.5-6-2.9-11.9-4.4-17.9c-1.2-4.7-2.5-9.4-3.7-14.2c-0.4-1.6-0.6-3.2-1-4.9c1.8-0.5,21.7-0.7,27.8-0.3
	c0.7,1.2,0.9,2.5,1.1,4c0.6,4,1.5,7.9,2.3,11.8c0.3,1.4,0.5,2.8,0.7,4.2c0.5,3,0.8,5.9,1.4,8.9c0.7,3.8,1.6,7.6,2.3,11.4
	c0.6,3.1,1,6.2,1.6,9.3c0.7,3.9,1.6,7.7,2.3,11.6c0.3,1.4,0.4,2.8,0.6,4.2c0.4,3,0.9,5.9,1.3,8.9c0.4,3,0.8,5.9,1.3,8.9
	c0.3,1.8,0.6,3.6,1.2,5.5c0.4-1.1,0.9-2.1,1-3.3c0.3-2.8,0.6-5.5,0.6-8.3c0-3,0.5-5.8,1.2-8.7c0.4-1.8,0.5-3.6,0.8-5.4
	c0.2-1.6,0.4-3.1,0.7-4.7c0.6-3.7,1.1-7.3,1.7-11c0.5-3.1,1.2-6.2,1.8-9.2c0.3-1.8,0.4-3.6,0.7-5.4c0.3-2.1,0.8-4.2,1.1-6.3
	c0.3-1.5,0.5-3,0.7-4.4c0.7-4.4,1.3-8.7,2-13.1c0.5-2.9,0.9-5.8,1.4-8.7c1.6-0.4,21.1-0.6,24.3-0.1c0.7,1.8-0.5,3.5-0.7,5.2
	c-0.3,2.7-1,5.3-1.5,7.9c-0.3,1.8-0.6,3.6-0.9,5.3c-0.5,2.8-1.1,5.6-1.6,8.3c-0.8,4-1.7,8-2.5,12c-0.7,3.9-1.3,7.8-2.1,11.6
	c-0.5,2.7-1.3,5.3-1.8,8c-0.5,2.6-0.8,5.1-1.2,7.7c-0.2,1.3-0.4,2.7-0.7,4c-1,4.7-2.1,9.4-3,14.1c-0.9,4.9-1.5,9.8-2.6,14.7
	c-1,4.2-1.5,8.5-2.4,12.8c-1.1,5-2.1,10-3.1,15c-0.7,3.7-1.1,7.5-2,11.2c-1.2,4.9-2,9.8-3.6,14.7c-1.3,3.9-2.6,7.8-4.1,11.6
	c-1.4,3.6-3.5,6.9-6.3,9.7c-1.7,1.7-3.5,3.5-5.8,4.5c-2,0.8-3.9,1.6-5.9,2.3c-4.5,1.4-9.2,1.8-13.9,1.4
	C970.9,236.4,967.8,235.7,964.6,235.1"/>
<path class="st0" d="M217.9,54.5h60.2v23.8c-3.8,0.2-7.5,0.1-11.3,0.1c-3.8,0-7.7,0-11.5,0c-3.7,0-7.5,0-11.1,0
	c-0.6,2.1-0.7,46.9-0.1,49.9c8.1,0.2,16.3-0.1,24.6,0.1c0.1,0.9,0.2,1.6,0.2,2.3c0,6.2,0,12.3,0,18.5c0,2.5-0.1,2.6-2.8,2.6
	c-6.3,0-12.6,0-19,0c-1,0-2.1,0.1-3,0.1c-0.5,1.9-0.7,55.4-0.1,58.6c2.9,0.3,5.9,0.1,9,0.1c3,0,6.1,0,9.1,0s6.1,0,9.1,0h9
	c0.6,1.9,0.8,21.6,0.2,24.4c-0.8,0.1-1.6,0.2-2.5,0.2c-19,0-37.9,0-56.9,0c-0.5,0-1,0-1.4,0c-1.1,0-1.6-0.6-1.6-1.7
	c0-0.6,0-1.3,0-1.9c0-58.1,0-116.1,0-174.2C217.9,56.6,217.9,55.6,217.9,54.5"/>
<path class="st0" d="M182.3,235.1c-1.1,0.1-1.9,0.2-2.8,0.2c-6.6,0-13.3,0-19.9,0c-3.1,0-3.3-0.2-3.3-3.3c0-27.6,0-55.2,0-82.8
	c0-22.6,0-45.1,0-67.7c0-0.9-0.1-1.9-0.1-3.2h-21.3c-0.6-2.1-0.7-20.7-0.3-23.7c1.7-0.4,67.5-0.6,70.8-0.1c0,7.7,0,15.5,0,23.5
	c-1.1,0.1-2.1,0.2-3,0.2c-5.7,0-11.4,0-17,0c-0.9,0-1.9,0.1-3.1,0.2L182.3,235.1L182.3,235.1z"/>
<path class="st0" d="M379.5,78.8h25.3c0.1-1.2,0.2-2.2,0.3-3.2c0-6.1,0-12.2,0-18.2c0-0.9,0.1-1.9,0.2-2.9h37.3
	c0.5,1.7,0.6,20.3,0.1,23.7c-0.9,0.1-1.9,0.2-2.9,0.2c-10.4,0-20.8,0-31.2,0c-1,0-2,0.1-3.4,0.2v3.7c0,49.6,0,99.2,0,148.8
	c0,4.3,0.4,4.3-4.4,4.3c-6.1,0-12.2,0-18.2,0c-0.9,0-1.9,0-2.8,0C379.1,233.4,378.9,83.7,379.5,78.8"/>
<path class="st0" d="M673.9,64.1v6.1c2.7,0.7,2.9,0.6,3.6-1.4c0.2-0.7,0.6-1.3,0.9-1.9c1.8-4,3.5-8,5.3-11.9
	c0.8-1.7,1.7-3.3,2.9-5.4c3.3,7.3,6.4,14.1,9.6,21.1h2.6v-7.4c1.8,0,3.3-0.1,4.8,0.1c0.5,0.1,1.1,0.8,1.5,1.3
	c0.2,0.3,0.1,0.9,0.1,1.4c0,6.9,0.5,13.8-0.1,20.6c-0.8,8.8-0.3,17.5-0.5,26.3c-0.2,8.7,0,17.4,0,26.1c0,1,0.1,2,0.2,3.3h6
	c0.1,1.1,0.2,1.8,0.2,2.6c0,6.4,0,12.8,0,19.2c0,2.4-0.3,2.7-2.5,3.4c-5.1,1.6-10,3.5-14.8,5.7c-4,1.8-8.1,3.3-11.9,5.4
	c-5.3,2.8-10.4,6-15.6,9c-0.9,0.5-1.9,1-3.1,1.6v-2.6c0-11.3,0-22.6,0-33.8c0-2.5-0.5-5-0.6-7.6c-0.1-2.7,0.1-2.8,2.9-2.8
	c1,0,2,0,3.3,0c0.1-1,0.2-1.8,0.2-2.6c0-17.3,0-34.5,0-51.8c-1.3-6.6-0.6-13.3-0.7-20c-0.1-4,0.1-4.1,4.2-4
	C672.7,63.9,673.1,64,673.9,64.1 M683.7,81.4c-0.6,2.9-0.5,13.6,0.2,15.3c2.6,0.4,4.1,0.3,6-0.3c-0.1-4.9,0.2-9.8-0.1-15H683.7z
	 M683.4,103.8c0,5.4-0.1,10.4,0,15.5h6c0.2-0.3,0.3-0.5,0.3-0.6c0-4.5,0.1-8.9,0.1-13.4c0-1-0.6-1.4-1.5-1.5
	C686.9,103.8,685.4,103.8,683.4,103.8 M683.4,127c0,5.2-0.2,10.1,0.1,15.1h6.2V127L683.4,127z"/>
<path class="st0" d="M812.4,73.7h-29.3c-0.1-0.7-0.2-1.4-0.2-2.1c0-10.3,0-20.6,0-30.9c0-2.6,0.1-2.7,2.7-2.7c1,0,2.1,0,3.4,0v-6.7
	c2.1-0.2,3.9-0.3,5.8-0.5v-7h5.5c0.9,2.2,0,4.5,0.7,7c1.1,0.1,2.3,0.2,3.4,0.2c2.4,0.1,2.5,0.2,2.5,2.6c0,1.3,0,2.7,0,4.2
	c2,0.1,3.6,0.2,5.4,0.3V73.7z"/>
<path class="st0" d="M379.4,54.4h20.8c0.1,6.4,0,12.8,0,19c-2,0.6-18.2,0.7-20.8,0.1V54.4z"/>
<path class="st0" d="M903,73.8h-20.3c-0.6-1.7-0.8-15-0.3-19.4c6.8-0.2,13.6,0,20.6-0.1V73.8z"/>
<path class="st0" d="M719.7,164.3c-1.2,0.3-2.4,0.6-3.9,0.9v-27.5c-2.1-0.1-4-0.2-6.1-0.3v-18.1c3.2-0.2,6.4-0.1,9.6,0
	C720,121,720.2,157.1,719.7,164.3"/>
<path class="st0" d="M829,101.8c0.9,0.4,1.3,0.6,1.6,0.8c2.4,1.7,4.8,3.5,7.2,5.3c1.3,0.9,2.5,2,3.6,3.1c0.4,0.4,0.7,1.1,0.7,1.6
	c0,6.3,0,12.6,0,18.9c0,0.2-0.2,0.4-0.4,0.9c-3.5-3.7-7.9-5.6-12.8-6.5V101.8z"/>
<path class="st0" d="M645.8,202.5c-0.5-1.9-0.5-25.7,0-28h12c0.1,0.5,0.3,1.1,0.3,1.7c0,5.1,0,10.2,0,15.3c0,0.8-0.1,1.4-0.9,2
	C653.5,196.4,649.7,199.4,645.8,202.5"/>
</svg>
